<?xml version="1.0" encoding="iso-8859-1"?>
<!-- Generator: Adobe Illustrator 19.0.0, SVG Export Plug-In . SVG Version: 6.00 Build 0)  -->
<svg version="1.1" id="Capa_1" xmlns="http://www.w3.org/2000/svg" xmlns:xlink="http://www.w3.org/1999/xlink" x="0px" y="0px"
	 viewBox="0 0 480.059 480.059" style="enable-background:new 0 0 480.059 480.059;" xml:space="preserve">
<g>
	<g>
		<path d="M480.029,372.006l-0.113-145.965c-0.04-18.778-15.26-33.987-34.039-34.012c-16.526-0.021-30.672,11.847-33.523,28.125
			l-18.875,106.969c-7.636-1.013-15.372,0.896-21.66,5.344l-64.391,45.293c-2.132,1.496-3.4,3.938-3.398,6.543v87.727
			c0,4.418,3.582,8,8,8h80c4.418,0,8-3.582,8-8v-10.121l52.668-33.535C470.478,415.185,480.686,394.134,480.029,372.006z
			 M443.939,414.982L443.939,414.982l-56.207,35.785c-2.306,1.47-3.702,4.015-3.703,6.75v6.512h-64v-75.574l60.992-42.902
			c6.642-4.667,15.81-3.066,20.476,3.576c4.563,6.495,3.146,15.44-3.203,20.205l-43.066,32.297l9.602,12.797l43.066-32.297
			c13.562-10.174,16.308-29.415,6.134-42.977c-0.871-1.161-1.823-2.259-2.85-3.285c-0.821-0.82-1.685-1.594-2.59-2.32l19.52-110.613
			c1.73-9.811,11.087-16.363,20.898-14.632c8.617,1.52,14.901,9.004,14.906,17.753l0.114,145.957
			C464.708,388.749,457.217,404.772,443.939,414.982z"/>
	</g>
</g>
<g>
	<g>
		<path d="M172.63,377.76l-64.391-45.293c-6.288-4.448-14.025-6.356-21.66-5.344L67.704,220.154
			c-3.266-18.514-20.922-30.875-39.436-27.609c-16.258,2.868-28.114,16.987-28.127,33.496L0.029,372.014
			c-0.645,22.192,9.629,43.291,27.496,56.469l52.504,33.426v10.121c0,4.418,3.582,8,8,8h80c4.418,0,8-3.582,8-8v-87.727
			C176.03,381.698,174.762,379.256,172.63,377.76z M160.029,464.029h-64v-6.512c-0.001-2.735-1.397-5.28-3.703-6.75l-56.043-35.676
			c-13.365-10.199-20.923-26.271-20.254-43.07l0.113-145.965c0.007-9.963,8.089-18.034,18.051-18.027
			c8.75,0.006,16.234,6.29,17.753,14.906l19.519,110.613c-0.905,0.726-1.769,1.5-2.59,2.32c-11.988,11.988-11.988,31.424,0,43.412
			c1.026,1.026,2.124,1.979,3.285,2.85l43.066,32.297l9.602-12.797l-43.066-32.297c-6.492-4.873-7.804-14.086-2.931-20.578
			c4.765-6.348,13.71-7.766,20.205-3.203l60.992,42.902V464.029z"/>
	</g>
</g>
<g>
	<g>
		<path d="M240.029,0.029h-0.504l0.504,16c9.791-0.001,19.559,0.934,29.172,2.793l3.055-15.703
			C261.636,1.062,250.845,0.027,240.029,0.029z"/>
	</g>
</g>
<g>
	<g>
		<path d="M206.759,3.326c-10.787,2.167-21.333,5.396-31.484,9.641l6.172,14.758c9.177-3.833,18.71-6.751,28.461-8.711
			L206.759,3.326z"/>
	</g>
</g>
<g>
	<g>
		<path d="M347.564,275.451c-7.037,7.042-14.744,13.381-23.012,18.926l8.914,13.289c9.131-6.126,17.644-13.127,25.418-20.902
			L347.564,275.451z"/>
	</g>
</g>
<g>
	<g>
		<path d="M303.798,12.561l-6.078,14.797c9.202,3.784,18.011,8.462,26.301,13.965l8.852-13.328
			C323.71,21.909,313.972,16.74,303.798,12.561z"/>
	</g>
</g>
<g>
	<g>
		<path d="M392.029,168.029c0.001,9.952-0.966,19.88-2.887,29.645l15.695,3.102c2.123-10.786,3.192-21.753,3.191-32.746v-0.68
			L392.029,168.029z"/>
	</g>
</g>
<g>
	<g>
		<path d="M358.384,48.798L347.111,60.15c7.065,7.016,13.429,14.703,19.004,22.953l13.258-8.953
			C373.217,65.038,366.188,56.547,358.384,48.798z"/>
	</g>
</g>
<g>
	<g>
		<path d="M298.318,308.455c-9.186,3.814-18.726,6.712-28.481,8.652l3.117,15.695c10.791-2.147,21.343-5.354,31.504-9.574
			L298.318,308.455z"/>
	</g>
</g>
<g>
	<g>
		<path d="M395.029,103.111l-14.758,6.188c3.845,9.175,6.776,18.707,8.75,28.457l15.68-3.172
			C402.518,123.801,399.279,113.259,395.029,103.111z"/>
	</g>
</g>
<g>
	<g>
		<path d="M380.513,226.17c-3.814,9.192-8.52,17.988-14.051,26.262l13.305,8.891c6.111-9.146,11.312-18.868,15.527-29.027
			L380.513,226.17z"/>
	</g>
</g>
<g>
	<g>
		<path d="M240.029,320.029c-9.899,0.002-19.774-0.955-29.488-2.859l-3.086,15.703c10.731,2.1,21.64,3.157,32.574,3.156h0.168
			L240.029,320.029z"/>
	</g>
</g>
<g>
	<g>
		<path d="M113.767,252.685l-13.281,8.93c6.138,9.124,13.151,17.629,20.938,25.395l11.297-11.328
			C125.67,268.65,119.322,260.949,113.767,252.685z"/>
	</g>
</g>
<g>
	<g>
		<path d="M146.294,28.584c-9.121,6.146-17.619,13.167-25.375,20.965l11.344,11.281c7.02-7.057,14.713-13.411,22.969-18.973
			L146.294,28.584z"/>
	</g>
</g>
<g>
	<g>
		<path d="M75.15,135.631c-2.077,10.674-3.122,21.524-3.121,32.398v0.336l16-0.336c-0.002-9.847,0.944-19.671,2.824-29.336
			L75.15,135.631z"/>
	</g>
</g>
<g>
	<g>
		<path d="M100.091,75.037c-6.095,9.156-11.276,18.889-15.469,29.059l14.797,6.094c3.789-9.2,8.476-18.004,13.992-26.285
			L100.091,75.037z"/>
	</g>
</g>
<g>
	<g>
		<path d="M90.978,197.986l-15.688,3.137c2.157,10.789,5.375,21.339,9.606,31.496l14.766-6.156
			C95.838,217.279,92.93,207.741,90.978,197.986z"/>
	</g>
</g>
<g>
	<g>
		<path d="M155.771,294.564l-8.883,13.305c9.151,6.104,18.878,11.296,29.043,15.5l6.109-14.789
			C172.846,304.78,164.047,300.086,155.771,294.564z"/>
	</g>
</g>
<g>
	<g>
		<path d="M360.029,136.029c0-24.559-15.258-50.895-40.434-55.344c-2.432-27.295-25.13-48.319-52.531-48.656
			c-9.521-0.008-18.865,2.569-27.035,7.457c-8.17-4.888-17.514-7.465-27.035-7.457c-28.278,0.408-51.65,22.17-54.07,50.348
			c-23.378,7.35-39.18,29.148-38.895,53.652c-0.009,11.407,3.405,22.554,9.801,32c-6.396,9.446-9.81,20.593-9.801,32
			c0,24.559,15.258,50.895,40.434,55.344c2.432,27.295,25.13,48.319,52.531,48.656c9.521,0.008,18.865-2.569,27.035-7.457
			c8.17,4.888,17.514,7.465,27.035,7.457c28.278-0.408,51.65-22.17,54.07-50.348c23.378-7.35,39.18-29.148,38.895-53.652
			c0.009-11.407-3.405-22.554-9.801-32C356.623,158.584,360.038,147.436,360.029,136.029z M232.029,104.029c0,8.837-7.163,16-16,16
			s-16-7.163-16-16h-16c0.02,17.665,14.335,31.98,32,32c5.635-0.032,11.158-1.569,16-4.452v151.006
			c-5.726,3.526-12.311,5.409-19.035,5.446c-18.763-0.417-34.313-14.669-36.361-33.324c16.988-4.706,26.944-22.292,22.237-39.28
			c-3.838-13.854-16.465-23.433-30.841-23.396v16c8.837,0,16,7.163,16,16s-7.163,16-16,16c-19.141,0-32-20.684-32-40
			c-0.017-9.824,3.504-19.325,9.918-26.766c2.605-3.003,2.605-7.466,0-10.469c-6.414-7.441-9.935-16.942-9.918-26.766
			c-0.355-19.183,13.173-35.828,32.023-39.402c3.921-0.998,6.648-4.552,6.598-8.598c-0.423-21.621,16.725-39.509,38.344-40
			c6.724,0.036,13.309,1.92,19.035,5.446V104.029z M334.111,173.264c6.414,7.441,9.935,16.942,9.918,26.766
			c0.355,19.183-13.173,35.828-32.023,39.402c-3.921,0.998-6.648,4.552-6.598,8.598c0.423,21.621-16.725,39.509-38.344,40
			c-6.724-0.036-13.309-1.92-19.035-5.446v-90.554c0-8.837,7.163-16,16-16s16,7.163,16,16h16c-0.02-17.665-14.335-31.98-32-32
			c-5.635,0.032-11.158,1.569-16,4.452V53.475c5.726-3.526,12.311-5.409,19.035-5.446c18.762,0.417,34.313,14.669,36.361,33.324
			c-16.988,4.706-26.944,22.292-22.237,39.28c3.838,13.854,16.465,23.433,30.841,23.396v-16c-8.837,0-16-7.163-16-16s7.163-16,16-16
			c19.141,0,32,20.684,32,40c0.017,9.824-3.504,19.325-9.918,26.766C331.505,165.798,331.505,170.26,334.111,173.264z"/>
	</g>
</g>
<g>
</g>
<g>
</g>
<g>
</g>
<g>
</g>
<g>
</g>
<g>
</g>
<g>
</g>
<g>
</g>
<g>
</g>
<g>
</g>
<g>
</g>
<g>
</g>
<g>
</g>
<g>
</g>
<g>
</g>
</svg>
